<svg xmlns="http://www.w3.org/2000/svg" role="img" aria-labelledby="title desc" width="1246" height="764" viewBox="11.9 11.9 1246.2 764.2">
  <title id="title">APKA VISSION — Your Vision. We Make It Happen.</title>
  <desc id="desc">Client partnership represented by a recognizable handshake, integrated with an A and a rising arrow.</desc>
  <g fill-rule="evenodd">
    <path d="M 1037.00,758.00 L 1034.00,762.00 L 1036.00,765.00 L 1040.00,765.00 L 1041.00,759.00 Z M 516.00,758.00 L 514.00,764.00 L 519.00,765.00 L 521.00,761.00 Z M 1255.00,752.00 L 1205.00,752.00 L 1204.00,750.00 L 1189.00,750.00 L 1188.00,752.00 L 1083.00,752.00 Z M 13.00,746.00 L 15.00,748.00 L 13.00,751.00 L 15.00,752.00 L 194.00,751.00 L 30.00,752.00 L 24.00,749.00 L 20.00,752.00 L 16.00,752.00 L 16.00,746.00 Z M 436.00,740.00 L 436.00,765.00 L 442.00,765.00 L 442.00,740.00 Z M 394.00,740.00 L 394.00,765.00 L 399.00,765.00 L 399.00,740.00 Z M 334.00,740.00 L 319.00,740.00 L 319.00,765.00 L 325.00,765.00 L 325.00,749.00 L 329.00,745.00 L 334.00,745.00 Z M 287.00,740.00 L 288.00,762.00 L 295.00,766.00 L 301.00,764.00 L 310.00,765.00 L 310.00,740.00 L 305.00,740.00 L 305.00,755.00 L 300.00,761.00 L 296.00,761.00 L 293.00,758.00 L 293.00,740.00 Z M 1022.00,740.00 L 1003.00,740.00 L 1003.00,765.00 L 1009.00,765.00 L 1009.00,748.00 L 1013.00,744.00 L 1017.00,744.00 L 1020.00,747.00 L 1021.00,765.00 L 1026.00,765.00 L 1026.00,745.00 Z M 983.00,739.00 L 977.00,741.00 L 973.00,745.00 L 972.00,757.00 L 977.00,764.00 L 986.00,766.00 L 993.00,763.00 L 995.00,759.00 L 990.00,758.00 L 987.00,761.00 L 982.00,761.00 L 978.00,758.00 L 978.00,755.00 L 982.00,753.00 L 995.00,754.00 L 996.00,750.00 L 991.00,741.00 Z M 978.00,747.00 L 981.00,744.00 L 987.00,744.00 L 990.00,749.00 L 979.00,750.00 Z M 961.00,741.00 L 955.00,739.00 L 950.00,741.00 L 940.00,740.00 L 941.00,776.00 L 946.00,776.00 L 947.00,764.00 L 956.00,766.00 L 963.00,762.00 L 966.00,750.00 Z M 951.00,744.00 L 955.00,744.00 L 960.00,750.00 L 959.00,757.00 L 955.00,761.00 L 950.00,761.00 L 946.00,756.00 L 946.00,749.00 Z M 927.00,740.00 L 908.00,740.00 L 909.00,776.00 L 914.00,775.00 L 915.00,764.00 L 923.00,766.00 L 931.00,761.00 L 933.00,757.00 L 933.00,748.00 Z M 918.00,744.00 L 923.00,744.00 L 927.00,749.00 L 927.00,756.00 L 923.00,761.00 L 918.00,761.00 L 914.00,757.00 L 914.00,748.00 Z M 881.00,741.00 L 878.00,746.00 L 883.00,747.00 L 885.00,744.00 L 891.00,744.00 L 893.00,749.00 L 880.00,752.00 L 877.00,755.00 L 878.00,763.00 L 884.00,766.00 L 891.00,764.00 L 900.00,765.00 L 898.00,743.00 L 890.00,739.00 Z M 883.00,760.00 L 885.00,754.00 L 894.00,754.00 L 894.00,757.00 L 890.00,761.00 Z M 755.00,739.00 L 747.00,741.00 L 742.00,748.00 L 743.00,760.00 L 747.00,764.00 L 753.00,766.00 L 763.00,763.00 L 765.00,759.00 L 760.00,758.00 L 757.00,761.00 L 752.00,761.00 L 748.00,758.00 L 748.00,755.00 L 766.00,753.00 L 764.00,744.00 Z M 748.00,747.00 L 751.00,744.00 L 757.00,744.00 L 760.00,749.00 L 749.00,750.00 Z M 687.00,741.00 L 684.00,746.00 L 697.00,744.00 L 699.00,749.00 L 686.00,752.00 L 683.00,755.00 L 684.00,763.00 L 690.00,766.00 L 697.00,764.00 L 706.00,765.00 L 704.00,743.00 L 696.00,739.00 Z M 689.00,759.00 L 691.00,754.00 L 700.00,754.00 L 700.00,757.00 L 696.00,761.00 L 691.00,761.00 Z M 603.00,739.00 L 594.00,744.00 L 592.00,748.00 L 592.00,757.00 L 597.00,764.00 L 606.00,766.00 L 612.00,764.00 L 616.00,759.00 L 611.00,758.00 L 607.00,761.00 L 602.00,761.00 L 599.00,759.00 L 598.00,755.00 L 616.00,754.00 L 616.00,748.00 L 611.00,741.00 Z M 598.00,747.00 L 601.00,744.00 L 607.00,744.00 L 610.00,749.00 L 599.00,750.00 Z M 501.00,740.00 L 482.00,740.00 L 482.00,765.00 L 488.00,765.00 L 488.00,748.00 L 492.00,744.00 L 496.00,744.00 L 500.00,748.00 L 500.00,765.00 L 505.00,765.00 L 505.00,745.00 Z M 461.00,739.00 L 455.00,741.00 L 451.00,745.00 L 449.00,754.00 L 451.00,760.00 L 455.00,764.00 L 464.00,766.00 L 473.00,760.00 L 475.00,750.00 L 469.00,741.00 Z M 460.00,744.00 L 466.00,745.00 L 469.00,749.00 L 469.00,756.00 L 464.00,761.00 L 458.00,760.00 L 455.00,755.00 L 456.00,747.00 Z M 412.00,740.00 L 407.00,747.00 L 409.00,752.00 L 420.00,755.00 L 423.00,759.00 L 419.00,762.00 L 414.00,761.00 L 412.00,758.00 L 407.00,760.00 L 412.00,765.00 L 424.00,765.00 L 429.00,759.00 L 428.00,754.00 L 414.00,749.00 L 413.00,746.00 L 417.00,743.00 L 428.00,746.00 L 427.00,743.00 L 419.00,739.00 Z M 266.00,739.00 L 260.00,741.00 L 256.00,745.00 L 254.00,756.00 L 258.00,763.00 L 269.00,766.00 L 278.00,760.00 L 280.00,750.00 L 279.00,746.00 L 274.00,741.00 Z M 264.00,744.00 L 269.00,744.00 L 274.00,749.00 L 274.00,756.00 L 269.00,761.00 L 263.00,760.00 L 260.00,756.00 L 260.00,749.00 Z M 806.00,733.00 L 806.00,739.00 L 802.00,740.00 L 802.00,744.00 L 806.00,745.00 L 806.00,761.00 L 810.00,765.00 L 817.00,765.00 L 818.00,761.00 L 814.00,761.00 L 811.00,757.00 L 811.00,746.00 L 816.00,744.00 L 817.00,740.00 L 812.00,740.00 L 811.00,733.00 Z M 840.00,731.00 L 840.00,765.00 L 846.00,765.00 L 847.00,750.00 L 862.00,750.00 L 863.00,765.00 L 869.00,765.00 L 869.00,731.00 L 863.00,731.00 L 862.00,745.00 L 847.00,745.00 L 846.00,731.00 Z M 788.00,731.00 L 788.00,765.00 L 794.00,765.00 L 794.00,731.00 Z M 639.00,731.00 L 639.00,765.00 L 645.00,765.00 L 644.00,756.00 L 646.00,747.00 L 649.00,748.00 L 654.00,765.00 L 659.00,765.00 L 666.00,746.00 L 669.00,747.00 L 669.00,765.00 L 675.00,765.00 L 675.00,731.00 L 665.00,732.00 L 658.00,753.00 L 654.00,750.00 L 648.00,731.00 Z M 543.00,731.00 L 551.00,765.00 L 559.00,765.00 L 562.00,750.00 L 565.00,745.00 L 568.00,746.00 L 572.00,764.00 L 580.00,764.00 L 589.00,731.00 L 582.00,731.00 L 577.00,752.00 L 573.00,749.00 L 569.00,731.00 L 562.00,731.00 L 556.00,751.00 L 553.00,750.00 L 549.00,731.00 Z M 354.00,731.00 L 366.00,765.00 L 374.00,765.00 L 386.00,731.00 L 379.00,732.00 L 371.00,755.00 L 368.00,754.00 L 361.00,732.00 Z M 222.00,731.00 L 234.00,751.00 L 234.00,765.00 L 240.00,765.00 L 240.00,752.00 L 253.00,731.00 L 246.00,731.00 L 239.00,743.00 L 234.00,741.00 L 229.00,731.00 Z M 714.00,730.00 L 714.00,765.00 L 720.00,765.00 L 721.00,756.00 L 724.00,756.00 L 731.00,765.00 L 738.00,765.00 L 728.00,752.00 L 728.00,749.00 L 737.00,740.00 L 730.00,740.00 L 721.00,747.00 L 720.00,730.00 Z M 437.00,730.00 L 436.00,734.00 L 439.00,736.00 L 441.00,735.00 L 442.00,731.00 Z M 393.00,731.00 L 393.00,734.00 L 396.00,736.00 L 400.00,733.00 L 399.00,730.00 Z M 1094.00,683.00 L 1089.00,683.00 L 1088.00,678.00 L 1085.00,681.00 L 1066.00,681.00 L 1074.00,683.00 Z M 936.00,681.00 L 923.00,678.00 L 916.00,683.00 L 906.00,683.00 L 927.00,683.00 Z M 828.00,681.00 L 822.00,678.00 L 815.00,678.00 L 811.00,683.00 L 800.00,683.00 L 819.00,683.00 Z M 786.00,680.00 L 797.00,682.00 L 793.00,678.00 Z M 622.00,679.00 L 623.00,681.00 L 655.00,681.00 L 646.00,677.00 L 644.00,681.00 L 634.00,681.00 L 632.00,677.00 Z M 1161.00,681.00 L 1187.00,681.00 L 1181.00,681.00 L 1177.00,674.00 L 1172.00,675.00 L 1170.00,673.00 L 1166.00,681.00 Z M 714.00,673.00 L 714.00,676.00 L 717.00,678.00 L 717.00,680.00 L 714.00,681.00 L 740.00,681.00 L 728.00,681.00 L 727.00,678.00 Z M 1040.00,665.00 L 1050.00,674.00 L 1058.00,678.00 L 1054.00,669.00 L 1045.00,670.00 Z M 837.00,666.00 L 843.00,674.00 L 850.00,665.00 Z M 768.00,667.00 L 773.00,673.00 L 781.00,678.00 L 778.00,674.00 L 782.00,668.00 L 787.00,666.00 L 780.00,663.00 L 778.00,667.00 Z M 806.00,663.00 L 796.00,660.00 L 795.00,664.00 L 790.00,667.00 L 790.00,670.00 L 794.00,672.00 L 806.00,665.00 Z M 615.00,660.00 L 619.00,671.00 L 625.00,668.00 L 626.00,665.00 L 617.00,663.00 Z M 901.00,658.00 L 903.00,660.00 L 902.00,664.00 L 886.00,676.00 L 896.00,681.00 L 904.00,682.00 L 899.00,681.00 L 901.00,670.00 L 914.00,664.00 Z M 1122.00,657.00 L 1112.00,657.00 L 1112.00,662.00 L 1119.00,662.00 L 1120.00,665.00 L 1116.00,666.00 L 1116.00,675.00 L 1111.00,678.00 L 1122.00,672.00 L 1129.00,665.00 L 1127.00,667.00 L 1120.00,665.00 L 1120.00,658.00 Z M 1071.00,659.00 L 1066.00,655.00 L 1061.00,661.00 L 1066.00,662.00 Z M 821.00,661.00 L 832.00,661.00 L 836.00,664.00 L 827.00,658.00 L 826.00,655.00 Z M 740.00,655.00 L 739.00,660.00 L 736.00,662.00 L 731.00,660.00 L 728.00,663.00 L 732.00,672.00 L 739.00,672.00 L 740.00,674.00 Z M 1106.00,653.00 L 1098.00,659.00 L 1106.00,658.00 Z M 897.00,650.00 L 882.00,650.00 L 885.00,656.00 L 873.00,659.00 L 878.00,669.00 L 878.00,666.00 L 886.00,660.00 L 886.00,657.00 L 894.00,650.00 Z M 763.00,650.00 L 765.00,661.00 L 774.00,650.00 L 788.00,650.00 L 791.00,655.00 L 789.00,650.00 Z M 627.00,650.00 L 632.00,659.00 L 644.00,660.00 L 651.00,669.00 L 657.00,672.00 L 657.00,675.00 L 662.00,662.00 L 658.00,663.00 L 652.00,661.00 L 645.00,652.00 L 641.00,651.00 L 638.00,653.00 L 636.00,647.00 L 635.00,650.00 Z M 730.00,649.00 L 726.00,648.00 L 727.00,645.00 L 723.00,647.00 L 722.00,652.00 L 714.00,650.00 L 714.00,657.00 L 723.00,656.00 L 726.00,658.00 L 724.00,653.00 Z M 1139.00,644.00 L 1138.00,646.00 L 1131.00,646.00 L 1127.00,654.00 L 1133.00,655.00 L 1134.00,657.00 Z M 1030.00,642.00 L 1032.00,650.00 L 1035.00,646.00 Z M 852.00,642.00 L 843.00,650.00 L 838.00,651.00 L 839.00,654.00 L 852.00,653.00 L 853.00,658.00 Z M 670.00,641.00 L 666.00,642.00 L 663.00,639.00 L 655.00,641.00 L 649.00,650.00 L 660.00,647.00 L 666.00,652.00 Z M 1250.00,637.00 L 1248.00,636.00 L 1245.00,639.00 L 1242.00,638.00 L 1238.00,640.00 L 1238.00,642.00 L 1246.00,642.00 L 1250.00,640.00 Z M 957.00,635.00 L 960.00,640.00 L 958.00,646.00 L 947.00,650.00 L 943.00,657.00 L 934.00,654.00 L 934.00,656.00 L 926.00,662.00 L 931.00,659.00 L 937.00,659.00 L 939.00,661.00 L 937.00,665.00 L 931.00,667.00 L 931.00,671.00 L 942.00,670.00 L 944.00,672.00 L 944.00,677.00 L 938.00,680.00 L 951.00,674.00 L 960.00,661.00 L 960.00,659.00 L 958.00,665.00 L 954.00,668.00 L 950.00,668.00 L 946.00,665.00 L 947.00,659.00 L 957.00,655.00 L 961.00,657.00 L 961.00,644.00 Z M 605.00,634.00 L 611.00,650.00 L 612.00,647.00 L 626.00,648.00 L 624.00,642.00 L 608.00,640.00 Z M 1187.00,633.00 L 1186.00,639.00 L 1175.00,642.00 L 1168.00,651.00 L 1162.00,653.00 L 1161.00,648.00 L 1161.00,669.00 L 1162.00,654.00 L 1175.00,654.00 L 1180.00,650.00 L 1186.00,649.00 L 1187.00,662.00 L 1182.00,665.00 L 1183.00,668.00 L 1187.00,670.00 L 1187.00,673.00 Z M 913.00,639.00 L 911.00,633.00 L 899.00,636.00 Z M 630.00,629.00 L 626.00,637.00 L 633.00,639.00 Z M 649.00,626.00 L 646.00,636.00 L 652.00,630.00 Z M 910.00,627.00 L 916.00,628.00 L 915.00,625.00 Z M 955.00,632.00 L 949.00,627.00 L 939.00,623.00 L 940.00,626.00 L 935.00,632.00 L 938.00,636.00 L 934.00,641.00 L 920.00,641.00 L 932.00,646.00 L 935.00,644.00 L 936.00,640.00 L 943.00,640.00 L 947.00,635.00 Z M 849.00,635.00 L 842.00,628.00 L 831.00,623.00 L 829.00,627.00 L 821.00,629.00 L 819.00,638.00 L 808.00,640.00 L 822.00,645.00 L 826.00,639.00 L 833.00,634.00 L 846.00,632.00 Z M 1218.00,622.00 L 1216.00,626.00 L 1197.00,632.00 L 1206.00,644.00 L 1204.00,642.00 L 1205.00,639.00 L 1214.00,637.00 L 1222.00,632.00 L 1226.00,633.00 Z M 662.00,620.00 L 659.00,625.00 L 672.00,630.00 L 671.00,639.00 L 675.00,628.00 L 672.00,628.00 L 669.00,622.00 Z M 723.00,618.00 L 722.00,622.00 L 724.00,625.00 L 721.00,627.00 L 727.00,622.00 Z M 598.00,616.00 L 602.00,627.00 L 603.00,624.00 L 610.00,624.00 L 611.00,629.00 L 619.00,627.00 L 606.00,622.00 L 601.00,623.00 Z M 1111.00,615.00 L 1113.00,621.00 L 1112.00,642.00 L 1113.00,640.00 L 1125.00,639.00 L 1129.00,632.00 L 1114.00,632.00 L 1113.00,620.00 L 1116.00,619.00 L 1117.00,616.00 Z M 1192.00,610.00 L 1180.00,613.00 L 1164.00,625.00 L 1161.00,625.00 L 1161.00,641.00 L 1161.00,637.00 L 1164.00,636.00 L 1168.00,630.00 L 1177.00,628.00 L 1184.00,620.00 L 1187.00,621.00 L 1187.00,625.00 L 1187.00,623.00 L 1190.00,622.00 L 1184.00,618.00 L 1184.00,613.00 L 1188.00,610.00 Z M 1061.00,610.00 L 1059.00,613.00 L 1044.00,611.00 L 1040.00,617.00 L 1031.00,617.00 L 1030.00,615.00 L 1029.00,626.00 L 1030.00,622.00 L 1039.00,622.00 L 1040.00,624.00 L 1048.00,620.00 L 1056.00,622.00 L 1056.00,636.00 L 1053.00,639.00 L 1052.00,649.00 L 1049.00,650.00 L 1053.00,650.00 L 1057.00,647.00 L 1061.00,649.00 L 1056.00,637.00 L 1056.00,622.00 Z M 655.00,608.00 L 651.00,621.00 L 653.00,617.00 L 657.00,617.00 Z M 621.00,603.00 L 619.00,610.00 L 623.00,611.00 L 625.00,614.00 L 623.00,623.00 L 628.00,624.00 Z M 902.00,601.00 L 892.00,610.00 L 882.00,625.00 L 878.00,624.00 L 890.00,633.00 L 890.00,626.00 L 895.00,622.00 L 897.00,617.00 L 902.00,613.00 L 906.00,614.00 L 900.00,608.00 Z M 825.00,607.00 L 851.00,607.00 L 843.00,607.00 L 838.00,601.00 L 835.00,601.00 L 837.00,603.00 L 836.00,607.00 Z M 1201.00,598.00 L 1203.00,608.00 L 1199.00,609.00 L 1199.00,612.00 L 1204.00,613.00 L 1206.00,610.00 L 1209.00,610.00 L 1212.00,613.00 Z M 924.00,597.00 L 931.00,602.00 L 933.00,607.00 L 959.00,607.00 L 957.00,598.00 L 956.00,600.00 L 949.00,601.00 L 947.00,607.00 L 935.00,607.00 L 934.00,599.00 L 929.00,600.00 Z M 778.00,602.00 L 768.00,600.00 L 767.00,596.00 L 765.00,611.00 L 766.00,606.00 Z M 808.00,595.00 L 801.00,596.00 L 800.00,594.00 L 785.00,600.00 L 784.00,602.00 L 792.00,606.00 L 792.00,610.00 L 779.00,616.00 L 767.00,618.00 L 770.00,624.00 L 782.00,633.00 L 797.00,637.00 L 797.00,633.00 L 802.00,630.00 L 801.00,619.00 L 803.00,617.00 L 808.00,617.00 L 797.00,614.00 L 792.00,609.00 L 792.00,603.00 L 796.00,598.00 Z M 799.00,620.00 L 794.00,630.00 L 788.00,632.00 L 777.00,630.00 L 771.00,625.00 L 772.00,622.00 L 781.00,622.00 L 782.00,619.00 L 788.00,617.00 L 794.00,617.00 Z M 812.00,596.00 L 819.00,598.00 L 824.00,605.00 L 824.00,601.00 L 830.00,599.00 L 826.00,598.00 L 821.00,593.00 Z M 904.00,599.00 L 913.00,595.00 L 922.00,596.00 L 907.00,592.00 L 904.00,594.00 Z M 844.00,589.00 L 839.00,595.00 L 841.00,598.00 L 849.00,599.00 Z M 616.00,588.00 L 615.00,591.00 L 605.00,596.00 L 607.00,600.00 L 619.00,598.00 Z M 881.00,587.00 L 876.00,595.00 L 879.00,594.00 L 886.00,598.00 L 886.00,594.00 Z M 662.00,588.00 L 656.00,606.00 L 657.00,602.00 L 661.00,600.00 L 663.00,609.00 L 676.00,616.00 L 678.00,621.00 L 682.00,610.00 L 678.00,611.00 L 667.00,603.00 L 665.00,598.00 L 672.00,596.00 L 685.00,603.00 L 688.00,594.00 L 685.00,596.00 L 673.00,587.00 L 667.00,591.00 L 663.00,591.00 Z M 1232.00,586.00 L 1232.00,631.00 L 1233.00,628.00 L 1246.00,626.00 L 1246.00,624.00 L 1250.00,622.00 L 1250.00,618.00 L 1249.00,622.00 L 1232.00,620.00 L 1232.00,613.00 L 1237.00,609.00 L 1232.00,607.00 L 1232.00,596.00 L 1236.00,595.00 L 1237.00,599.00 L 1243.00,599.00 L 1237.00,595.00 L 1236.00,589.00 L 1233.00,589.00 Z M 1049.00,586.00 L 1040.00,594.00 L 1035.00,602.00 L 1037.00,599.00 L 1040.00,600.00 L 1045.00,598.00 L 1044.00,590.00 Z M 597.00,586.00 L 588.00,590.00 L 591.00,598.00 Z M 1257.00,584.00 L 1255.00,585.00 L 1255.00,589.00 L 1257.00,590.00 L 1257.00,603.00 L 1250.00,603.00 L 1249.00,606.00 L 1244.00,607.00 L 1246.00,611.00 L 1247.00,609.00 L 1255.00,611.00 L 1255.00,623.00 L 1253.00,624.00 L 1257.00,629.00 L 1255.00,641.00 L 1253.00,642.00 L 1255.00,643.00 L 1255.00,647.00 L 1252.00,649.00 L 1247.00,647.00 L 1249.00,651.00 L 1244.00,655.00 L 1237.00,655.00 L 1233.00,652.00 L 1232.00,654.00 L 1235.00,655.00 L 1235.00,658.00 L 1229.00,661.00 L 1218.00,661.00 L 1213.00,652.00 L 1218.00,648.00 L 1225.00,648.00 L 1228.00,644.00 L 1224.00,643.00 L 1213.00,649.00 L 1207.00,646.00 L 1232.00,681.00 L 1257.00,681.00 L 1251.00,680.00 L 1252.00,677.00 L 1257.00,677.00 Z M 1257.00,660.00 L 1257.00,668.00 L 1251.00,673.00 L 1250.00,678.00 L 1245.00,681.00 L 1240.00,681.00 L 1236.00,676.00 L 1228.00,674.00 L 1224.00,670.00 L 1225.00,667.00 L 1230.00,668.00 L 1237.00,664.00 L 1247.00,662.00 L 1249.00,658.00 Z M 1250.00,605.00 L 1254.00,604.00 L 1255.00,607.00 L 1251.00,608.00 Z M 1189.00,581.00 L 1189.00,584.00 L 1185.00,587.00 L 1186.00,591.00 L 1195.00,589.00 Z M 830.00,586.00 L 832.00,587.00 L 836.00,584.00 L 841.00,586.00 L 834.00,581.00 L 834.00,584.00 Z M 1106.00,579.00 L 1108.00,583.00 L 1112.00,581.00 Z M 1064.00,579.00 L 1051.00,585.00 L 1061.00,586.00 L 1060.00,581.00 Z M 937.00,579.00 L 939.00,582.00 L 933.00,589.00 L 936.00,589.00 L 937.00,592.00 L 938.00,590.00 L 952.00,589.00 L 955.00,593.00 L 947.00,584.00 Z M 1232.00,578.00 L 1240.00,578.00 L 1243.00,581.00 L 1247.00,581.00 L 1250.00,578.00 L 1257.00,578.00 Z M 981.00,578.00 L 981.00,681.00 L 1008.00,681.00 L 1008.00,578.00 L 1003.00,578.00 L 1008.00,579.00 L 1007.00,582.00 L 1003.00,583.00 L 1003.00,585.00 L 1008.00,585.00 L 1008.00,607.00 L 1005.00,609.00 L 1005.00,612.00 L 1008.00,614.00 L 1008.00,633.00 L 1006.00,634.00 L 1008.00,638.00 L 1008.00,664.00 L 996.00,663.00 L 995.00,666.00 L 1008.00,673.00 L 1007.00,681.00 L 996.00,681.00 L 994.00,677.00 L 981.00,670.00 L 981.00,657.00 L 985.00,654.00 L 981.00,653.00 L 981.00,599.00 L 985.00,595.00 L 981.00,592.00 L 981.00,582.00 L 987.00,578.00 L 992.00,578.00 Z M 981.00,677.00 L 984.00,676.00 L 986.00,680.00 L 982.00,681.00 Z M 898.00,578.00 L 890.00,581.00 L 892.00,583.00 L 897.00,583.00 Z M 791.00,578.00 L 778.00,583.00 L 769.00,592.00 L 780.00,589.00 L 786.00,583.00 L 785.00,580.00 Z M 714.00,578.00 L 722.00,578.00 L 724.00,586.00 L 727.00,588.00 L 733.00,578.00 L 740.00,578.00 Z M 676.00,578.00 L 681.00,578.00 L 691.00,587.00 L 694.00,578.00 Z M 597.00,578.00 L 599.00,578.00 L 601.00,582.00 L 607.00,578.00 L 612.00,578.00 L 613.00,580.00 L 612.00,578.00 Z M 424.00,578.00 L 383.00,682.00 L 413.00,681.00 L 420.00,663.00 L 464.00,663.00 L 472.00,682.00 L 500.00,682.00 L 499.00,674.00 L 460.00,578.00 Z M 441.00,604.00 L 444.00,605.00 L 456.00,639.00 L 455.00,642.00 L 428.00,641.00 Z M 223.00,581.00 L 213.00,578.00 L 148.00,578.00 L 149.00,682.00 L 177.00,682.00 L 178.00,649.00 L 208.00,649.00 L 218.00,647.00 L 229.00,642.00 L 238.00,633.00 L 243.00,620.00 L 242.00,603.00 L 237.00,592.00 Z M 177.00,600.00 L 202.00,599.00 L 208.00,601.00 L 214.00,609.00 L 213.00,620.00 L 204.00,627.00 L 178.00,627.00 Z M 54.00,578.00 L 12.00,681.00 L 42.00,682.00 L 50.00,663.00 L 94.00,663.00 L 102.00,682.00 L 130.00,682.00 L 131.00,680.00 L 90.00,578.00 Z M 71.00,604.00 L 75.00,607.00 L 86.00,638.00 L 85.00,642.00 L 58.00,641.00 Z M 365.00,577.00 L 328.00,578.00 L 290.00,619.00 L 287.00,618.00 L 287.00,578.00 L 258.00,578.00 L 258.00,682.00 L 286.00,682.00 L 287.00,654.00 L 297.00,644.00 L 301.00,644.00 L 332.00,681.00 L 368.00,681.00 L 320.00,625.00 L 320.00,623.00 Z M 811.00,576.00 L 815.00,579.00 L 826.00,578.00 Z M 610.00,533.00 L 628.00,537.00 L 625.00,534.00 L 617.00,533.00 L 616.00,530.00 Z M 634.00,514.00 L 628.00,513.00 L 625.00,521.00 L 619.00,528.00 L 622.00,525.00 L 626.00,525.00 L 626.00,520.00 L 632.00,519.00 Z M 616.00,512.00 L 615.00,514.00 L 605.00,512.00 L 594.00,518.00 L 589.00,517.00 L 595.00,522.00 L 607.00,523.00 L 614.00,518.00 Z M 704.00,535.00 L 693.00,535.00 L 679.00,531.00 L 675.00,527.00 L 675.00,523.00 L 682.00,522.00 L 679.00,519.00 L 681.00,512.00 L 677.00,513.00 L 676.00,511.00 L 671.00,513.00 L 670.00,510.00 L 667.00,513.00 L 667.00,519.00 L 658.00,519.00 L 662.00,522.00 L 661.00,529.00 L 648.00,529.00 L 644.00,523.00 L 637.00,521.00 L 636.00,524.00 L 638.00,528.00 L 646.00,530.00 L 648.00,534.00 L 641.00,539.00 L 630.00,538.00 L 645.00,540.00 L 678.00,540.00 Z M 660.00,530.00 L 668.00,530.00 L 678.00,535.00 L 679.00,539.00 L 660.00,540.00 Z M 656.00,506.00 L 649.00,512.00 L 642.00,514.00 L 656.00,517.00 L 656.00,514.00 L 653.00,512.00 Z M 559.00,503.00 L 549.00,505.00 L 535.00,521.00 L 534.00,529.00 L 540.00,537.00 L 545.00,539.00 L 554.00,537.00 L 568.00,521.00 L 568.00,511.00 Z M 662.00,494.00 L 658.00,503.00 L 663.00,502.00 Z M 568.00,496.00 L 581.00,511.00 L 578.00,506.00 L 583.00,504.00 L 584.00,501.00 L 595.00,506.00 L 598.00,504.00 L 596.00,503.00 L 597.00,500.00 L 592.00,501.00 L 590.00,499.00 L 591.00,496.00 L 588.00,494.00 L 580.00,494.00 L 574.00,499.00 Z M 651.00,490.00 L 641.00,489.00 L 640.00,494.00 L 632.00,502.00 L 629.00,502.00 L 623.00,497.00 L 629.00,502.00 L 641.00,503.00 L 650.00,496.00 Z M 593.00,484.00 L 598.00,489.00 L 596.00,494.00 L 598.00,498.00 L 610.00,500.00 L 616.00,505.00 L 616.00,508.00 L 615.00,503.00 Z M 603.00,481.00 L 620.00,495.00 L 625.00,487.00 L 628.00,488.00 L 627.00,484.00 L 617.00,488.00 Z M 535.00,483.00 L 530.00,481.00 L 520.00,483.00 L 502.00,505.00 L 502.00,512.00 L 508.00,520.00 L 513.00,522.00 L 522.00,520.00 L 540.00,500.00 L 541.00,492.00 Z M 591.00,483.00 L 574.00,468.00 L 574.00,464.00 L 574.00,470.00 L 571.00,474.00 L 556.00,476.00 L 557.00,479.00 L 562.00,479.00 L 565.00,485.00 L 562.00,488.00 L 550.00,488.00 L 551.00,493.00 L 564.00,494.00 L 567.00,489.00 L 577.00,489.00 L 580.00,483.00 L 585.00,481.00 Z M 628.00,463.00 L 625.00,468.00 L 626.00,473.00 L 633.00,475.00 L 638.00,472.00 L 644.00,477.00 Z M 505.00,461.00 L 491.00,461.00 L 473.00,482.00 L 472.00,493.00 L 478.00,500.00 L 489.00,501.00 L 493.00,499.00 L 510.00,479.00 L 511.00,468.00 Z M 663.00,490.00 L 681.00,491.00 L 688.00,494.00 L 695.00,490.00 L 706.00,490.00 L 707.00,493.00 L 703.00,495.00 L 706.00,497.00 L 705.00,500.00 L 701.00,501.00 L 700.00,498.00 L 695.00,503.00 L 686.00,500.00 L 679.00,505.00 L 679.00,508.00 L 683.00,510.00 L 688.00,509.00 L 688.00,513.00 L 692.00,516.00 L 692.00,520.00 L 698.00,520.00 L 703.00,524.00 L 714.00,527.00 L 716.00,531.00 L 739.00,518.00 L 761.00,496.00 L 747.00,499.00 L 746.00,497.00 L 737.00,495.00 L 736.00,491.00 L 731.00,493.00 L 729.00,490.00 L 722.00,490.00 L 722.00,486.00 L 727.00,486.00 L 730.00,484.00 L 731.00,480.00 L 737.00,476.00 L 742.00,476.00 L 739.00,475.00 L 740.00,472.00 L 744.00,472.00 L 745.00,474.00 L 752.00,475.00 L 752.00,481.00 L 749.00,482.00 L 748.00,485.00 L 745.00,485.00 L 745.00,490.00 L 754.00,492.00 L 762.00,488.00 L 764.00,490.00 L 762.00,494.00 L 779.00,469.00 L 776.00,473.00 L 764.00,471.00 L 763.00,473.00 L 754.00,475.00 L 751.00,473.00 L 751.00,469.00 L 756.00,466.00 L 749.00,466.00 L 748.00,463.00 L 750.00,462.00 L 748.00,461.00 L 739.00,465.00 L 743.00,467.00 L 742.00,470.00 L 737.00,470.00 L 736.00,468.00 L 736.00,471.00 L 733.00,473.00 L 724.00,470.00 L 717.00,472.00 L 712.00,469.00 L 712.00,465.00 L 703.00,465.00 L 699.00,463.00 L 699.00,458.00 L 694.00,461.00 L 694.00,470.00 L 692.00,474.00 L 700.00,474.00 L 705.00,470.00 L 706.00,475.00 L 704.00,476.00 L 712.00,480.00 L 716.00,478.00 L 717.00,474.00 L 721.00,474.00 L 722.00,477.00 L 719.00,480.00 L 722.00,482.00 L 722.00,485.00 L 719.00,486.00 L 721.00,489.00 L 718.00,493.00 L 713.00,493.00 L 712.00,490.00 L 708.00,488.00 L 706.00,490.00 L 701.00,490.00 L 700.00,487.00 L 706.00,483.00 L 697.00,485.00 L 693.00,490.00 L 685.00,489.00 L 683.00,487.00 L 685.00,483.00 L 673.00,490.00 Z M 700.00,512.00 L 703.00,511.00 L 704.00,514.00 L 701.00,515.00 Z M 718.00,513.00 L 730.00,509.00 L 730.00,513.00 L 738.00,512.00 L 740.00,517.00 L 736.00,520.00 L 726.00,522.00 L 718.00,516.00 Z M 692.00,505.00 L 695.00,504.00 L 696.00,507.00 L 693.00,508.00 Z M 684.00,502.00 L 687.00,501.00 L 688.00,504.00 L 685.00,505.00 Z M 732.00,510.00 L 734.00,502.00 L 743.00,500.00 L 745.00,503.00 L 753.00,503.00 L 749.00,509.00 L 737.00,508.00 L 736.00,511.00 Z M 721.00,501.00 L 724.00,500.00 L 726.00,502.00 L 732.00,500.00 L 732.00,507.00 L 730.00,509.00 L 723.00,509.00 L 721.00,507.00 Z M 733.00,496.00 L 736.00,495.00 L 737.00,498.00 L 734.00,499.00 Z M 766.00,479.00 L 771.00,480.00 L 768.00,486.00 L 763.00,484.00 L 763.00,481.00 Z M 755.00,475.00 L 761.00,478.00 L 756.00,484.00 L 753.00,483.00 Z M 724.00,474.00 L 727.00,473.00 L 728.00,476.00 L 725.00,477.00 Z M 706.00,470.00 L 711.00,470.00 L 712.00,474.00 L 707.00,474.00 Z M 787.00,457.00 L 785.00,459.00 L 778.00,458.00 L 772.00,465.00 L 779.00,464.00 L 780.00,467.00 Z M 683.00,460.00 L 676.00,451.00 L 675.00,455.00 L 661.00,467.00 L 653.00,470.00 L 649.00,468.00 L 658.00,476.00 L 669.00,479.00 L 676.00,476.00 L 667.00,474.00 L 667.00,468.00 L 675.00,465.00 L 677.00,461.00 L 682.00,460.00 L 683.00,467.00 L 680.00,472.00 L 683.00,467.00 Z M 766.00,448.00 L 760.00,452.00 L 755.00,452.00 L 758.00,453.00 L 757.00,457.00 L 752.00,455.00 L 751.00,457.00 L 755.00,459.00 L 755.00,462.00 L 760.00,463.00 L 762.00,460.00 L 760.00,460.00 L 759.00,457.00 L 766.00,454.00 L 763.00,453.00 Z M 709.00,452.00 L 715.00,453.00 L 721.00,459.00 L 734.00,457.00 L 736.00,460.00 L 739.00,458.00 L 733.00,449.00 L 726.00,449.00 L 725.00,451.00 L 718.00,452.00 L 715.00,447.00 Z M 507.00,451.00 L 517.00,459.00 L 520.00,453.00 L 517.00,447.00 L 512.00,452.00 Z M 605.00,444.00 L 608.00,447.00 L 605.00,457.00 L 595.00,456.00 L 595.00,461.00 L 593.00,463.00 L 586.00,465.00 L 581.00,464.00 L 600.00,479.00 L 597.00,474.00 L 604.00,468.00 L 603.00,464.00 L 615.00,455.00 L 620.00,457.00 Z M 488.00,443.00 L 490.00,451.00 L 496.00,449.00 L 505.00,450.00 L 502.00,447.00 L 493.00,447.00 Z M 477.00,444.00 L 469.00,440.00 L 459.00,443.00 L 446.00,458.00 L 444.00,469.00 L 450.00,477.00 L 461.00,478.00 L 465.00,476.00 L 480.00,457.00 L 480.00,449.00 Z M 526.00,440.00 L 532.00,442.00 L 534.00,439.00 L 529.00,438.00 Z M 755.00,434.00 L 738.00,438.00 L 743.00,441.00 Z M 649.00,429.00 L 654.00,436.00 L 637.00,454.00 L 631.00,454.00 L 647.00,467.00 L 645.00,461.00 L 652.00,458.00 L 650.00,457.00 L 652.00,451.00 L 664.00,442.00 Z M 461.00,431.00 L 475.00,431.00 L 471.00,427.00 L 467.00,427.00 L 465.00,430.00 Z M 539.00,422.00 L 539.00,429.00 L 537.00,431.00 L 531.00,428.00 L 535.00,431.00 L 535.00,433.00 L 532.00,434.00 L 540.00,434.00 L 544.00,442.00 L 544.00,427.00 L 541.00,427.00 Z M 642.00,424.00 L 633.00,416.00 L 633.00,422.00 L 622.00,428.00 L 619.00,435.00 L 614.00,437.00 L 606.00,435.00 L 604.00,433.00 L 604.00,428.00 L 610.00,423.00 L 614.00,423.00 L 620.00,412.00 L 626.00,411.00 L 611.00,398.00 L 619.00,407.00 L 615.00,409.00 L 613.00,414.00 L 607.00,415.00 L 604.00,413.00 L 605.00,420.00 L 601.00,421.00 L 600.00,418.00 L 600.00,421.00 L 595.00,423.00 L 598.00,425.00 L 598.00,431.00 L 594.00,435.00 L 586.00,436.00 L 582.00,440.00 L 577.00,439.00 L 576.00,442.00 L 569.00,444.00 L 568.00,447.00 L 565.00,448.00 L 565.00,453.00 L 562.00,452.00 L 550.00,462.00 L 543.00,463.00 L 539.00,468.00 L 521.00,468.00 L 522.00,472.00 L 532.00,471.00 L 539.00,474.00 L 546.00,480.00 L 549.00,486.00 L 546.00,480.00 L 537.00,473.00 L 541.00,467.00 L 548.00,470.00 L 554.00,469.00 L 561.00,463.00 L 562.00,459.00 L 571.00,455.00 L 574.00,450.00 L 580.00,450.00 L 581.00,447.00 L 585.00,448.00 L 587.00,440.00 L 599.00,439.00 L 603.00,443.00 L 598.00,438.00 L 600.00,433.00 L 607.00,435.00 L 628.00,452.00 L 625.00,447.00 L 634.00,439.00 L 630.00,434.00 L 638.00,425.00 Z M 547.00,394.00 L 546.00,396.00 L 538.00,396.00 L 536.00,400.00 L 538.00,403.00 L 534.00,406.00 L 529.00,405.00 L 529.00,408.00 L 532.00,408.00 L 536.00,404.00 L 540.00,404.00 L 538.00,403.00 L 539.00,400.00 L 543.00,400.00 L 544.00,402.00 L 544.00,398.00 L 549.00,398.00 Z M 571.00,390.00 L 571.00,392.00 L 580.00,397.00 L 580.00,402.00 L 584.00,400.00 L 592.00,401.00 L 592.00,399.00 L 600.00,393.00 L 605.00,393.00 L 608.00,396.00 L 584.00,376.00 L 587.00,382.00 L 580.00,389.00 L 575.00,388.00 Z M 583.00,392.00 L 586.00,391.00 L 587.00,394.00 L 584.00,395.00 Z M 586.00,389.00 L 589.00,388.00 L 590.00,391.00 L 587.00,392.00 Z M 553.00,390.00 L 550.00,390.00 L 545.00,383.00 L 537.00,380.00 L 535.00,375.00 L 539.00,371.00 L 526.00,383.00 L 516.00,389.00 L 521.00,387.00 L 524.00,390.00 L 523.00,385.00 L 529.00,382.00 L 538.00,387.00 Z M 582.00,375.00 L 573.00,367.00 L 567.00,369.00 L 564.00,366.00 L 565.00,363.00 L 570.00,365.00 L 565.00,363.00 L 552.00,366.00 L 557.00,369.00 L 558.00,373.00 L 550.00,377.00 L 553.00,380.00 L 557.00,380.00 L 560.00,384.00 L 564.00,384.00 L 578.00,373.00 Z M 558.00,373.00 L 565.00,372.00 L 567.00,377.00 L 562.00,379.00 Z M 817.00,347.00 L 823.00,348.00 L 824.00,352.00 L 829.00,351.00 L 833.00,354.00 L 838.00,353.00 L 839.00,358.00 L 846.00,358.00 L 847.00,361.00 L 844.00,365.00 L 850.00,356.00 L 846.00,357.00 L 836.00,353.00 L 835.00,346.00 L 830.00,346.00 L 829.00,349.00 L 827.00,349.00 L 826.00,346.00 Z M 802.00,342.00 L 800.00,342.00 L 802.00,343.00 L 801.00,346.00 L 791.00,346.00 L 790.00,348.00 L 770.00,346.00 L 769.00,349.00 L 772.00,351.00 L 772.00,357.00 L 767.00,360.00 L 768.00,365.00 L 766.00,371.00 L 762.00,373.00 L 763.00,379.00 L 763.00,376.00 L 766.00,375.00 L 769.00,377.00 L 771.00,383.00 L 771.00,390.00 L 767.00,391.00 L 766.00,388.00 L 768.00,397.00 L 776.00,391.00 L 785.00,396.00 L 785.00,399.00 L 777.00,406.00 L 771.00,406.00 L 773.00,415.00 L 773.00,413.00 L 778.00,410.00 L 791.00,409.00 L 794.00,411.00 L 788.00,418.00 L 787.00,423.00 L 775.00,421.00 L 776.00,427.00 L 768.00,430.00 L 776.00,433.00 L 782.00,431.00 L 796.00,432.00 L 798.00,434.00 L 798.00,439.00 L 788.00,441.00 L 782.00,446.00 L 790.00,448.00 L 791.00,450.00 L 803.00,431.00 L 798.00,432.00 L 796.00,425.00 L 803.00,424.00 L 805.00,426.00 L 804.00,429.00 L 818.00,407.00 L 816.00,410.00 L 812.00,410.00 L 806.00,406.00 L 807.00,402.00 L 818.00,401.00 L 819.00,405.00 L 831.00,386.00 L 829.00,389.00 L 825.00,389.00 L 817.00,380.00 L 813.00,380.00 L 812.00,377.00 L 817.00,376.00 L 831.00,380.00 L 826.00,370.00 L 832.00,369.00 L 833.00,372.00 L 837.00,374.00 L 832.00,384.00 L 843.00,367.00 L 836.00,365.00 L 834.00,361.00 L 823.00,360.00 L 820.00,357.00 L 820.00,355.00 L 823.00,354.00 L 815.00,354.00 L 814.00,352.00 L 806.00,354.00 L 805.00,352.00 L 800.00,352.00 L 799.00,349.00 L 802.00,348.00 Z M 798.00,408.00 L 802.00,409.00 L 801.00,415.00 L 796.00,414.00 Z M 818.00,396.00 L 822.00,394.00 L 823.00,398.00 L 819.00,399.00 Z M 806.00,370.00 L 811.00,369.00 L 812.00,372.00 L 807.00,373.00 Z M 772.00,370.00 L 775.00,369.00 L 776.00,372.00 L 773.00,373.00 Z M 788.00,367.00 L 791.00,368.00 L 790.00,373.00 L 787.00,372.00 Z M 814.00,365.00 L 817.00,364.00 L 818.00,368.00 L 815.00,369.00 Z M 781.00,355.00 L 784.00,356.00 L 783.00,361.00 L 780.00,360.00 Z M 802.00,354.00 L 805.00,353.00 L 806.00,356.00 L 803.00,357.00 Z M 772.00,348.00 L 775.00,347.00 L 776.00,350.00 L 773.00,351.00 Z M 482.00,339.00 L 490.00,343.00 L 497.00,334.00 L 484.00,334.00 Z M 784.00,336.00 L 772.00,339.00 L 772.00,334.00 L 776.00,333.00 L 768.00,332.00 L 770.00,336.00 L 764.00,336.00 L 766.00,341.00 L 763.00,345.00 L 754.00,344.00 L 757.00,357.00 L 756.00,352.00 L 759.00,350.00 L 759.00,346.00 L 768.00,345.00 L 766.00,343.00 L 767.00,339.00 L 772.00,342.00 Z M 440.00,335.00 L 430.00,354.00 L 434.00,351.00 L 434.00,346.00 L 437.00,342.00 L 445.00,343.00 L 449.00,345.00 L 450.00,348.00 L 442.00,353.00 L 436.00,353.00 L 437.00,362.00 L 431.00,362.00 L 428.00,358.00 L 424.00,366.00 L 430.00,370.00 L 430.00,374.00 L 428.00,376.00 L 423.00,375.00 L 427.00,380.00 L 432.00,381.00 L 433.00,384.00 L 435.00,381.00 L 438.00,381.00 L 439.00,385.00 L 445.00,388.00 L 445.00,391.00 L 430.00,391.00 L 424.00,389.00 L 416.00,381.00 L 410.00,393.00 L 414.00,394.00 L 418.00,390.00 L 424.00,390.00 L 424.00,392.00 L 418.00,396.00 L 420.00,405.00 L 414.00,407.00 L 410.00,414.00 L 403.00,413.00 L 401.00,410.00 L 399.00,413.00 L 416.00,426.00 L 411.00,422.00 L 411.00,419.00 L 416.00,413.00 L 423.00,412.00 L 427.00,407.00 L 435.00,407.00 L 439.00,412.00 L 444.00,410.00 L 445.00,414.00 L 448.00,415.00 L 447.00,420.00 L 439.00,420.00 L 429.00,429.00 L 421.00,429.00 L 441.00,444.00 L 442.00,442.00 L 445.00,444.00 L 454.00,434.00 L 459.00,432.00 L 453.00,433.00 L 449.00,439.00 L 444.00,437.00 L 434.00,439.00 L 432.00,435.00 L 439.00,429.00 L 447.00,428.00 L 452.00,421.00 L 462.00,422.00 L 460.00,419.00 L 463.00,417.00 L 474.00,418.00 L 475.00,421.00 L 472.00,422.00 L 484.00,428.00 L 483.00,435.00 L 477.00,432.00 L 485.00,438.00 L 487.00,435.00 L 486.00,427.00 L 495.00,425.00 L 496.00,423.00 L 499.00,424.00 L 497.00,428.00 L 499.00,428.00 L 500.00,425.00 L 504.00,426.00 L 502.00,432.00 L 497.00,432.00 L 499.00,433.00 L 499.00,437.00 L 504.00,436.00 L 513.00,438.00 L 518.00,432.00 L 523.00,433.00 L 523.00,435.00 L 520.00,436.00 L 520.00,440.00 L 521.00,436.00 L 525.00,436.00 L 525.00,433.00 L 528.00,432.00 L 521.00,432.00 L 519.00,430.00 L 519.00,425.00 L 525.00,424.00 L 529.00,427.00 L 528.00,424.00 L 532.00,419.00 L 530.00,422.00 L 525.00,423.00 L 522.00,421.00 L 522.00,418.00 L 526.00,415.00 L 520.00,416.00 L 520.00,420.00 L 516.00,420.00 L 517.00,424.00 L 514.00,425.00 L 511.00,423.00 L 512.00,420.00 L 508.00,421.00 L 507.00,418.00 L 509.00,415.00 L 517.00,415.00 L 516.00,412.00 L 508.00,413.00 L 507.00,410.00 L 500.00,412.00 L 495.00,409.00 L 495.00,407.00 L 498.00,406.00 L 496.00,406.00 L 495.00,403.00 L 498.00,402.00 L 498.00,399.00 L 505.00,393.00 L 490.00,393.00 L 493.00,397.00 L 492.00,401.00 L 475.00,405.00 L 474.00,402.00 L 477.00,400.00 L 471.00,396.00 L 471.00,392.00 L 480.00,389.00 L 474.00,384.00 L 473.00,386.00 L 468.00,386.00 L 461.00,381.00 L 463.00,377.00 L 470.00,377.00 L 472.00,380.00 L 471.00,372.00 L 474.00,366.00 L 472.00,369.00 L 469.00,369.00 L 468.00,365.00 L 472.00,362.00 L 475.00,364.00 L 486.00,349.00 L 479.00,352.00 L 472.00,351.00 L 473.00,341.00 L 471.00,340.00 L 471.00,336.00 L 476.00,332.00 L 464.00,328.00 L 462.00,332.00 L 463.00,340.00 L 459.00,342.00 L 456.00,341.00 L 456.00,337.00 L 454.00,336.00 L 441.00,337.00 Z M 509.00,431.00 L 512.00,432.00 L 511.00,437.00 L 508.00,436.00 Z M 514.00,425.00 L 517.00,426.00 L 516.00,432.00 L 513.00,431.00 Z M 505.00,425.00 L 508.00,426.00 L 507.00,432.00 L 504.00,431.00 Z M 501.00,413.00 L 504.00,414.00 L 503.00,422.00 L 499.00,423.00 L 498.00,416.00 Z M 474.00,414.00 L 477.00,413.00 L 478.00,416.00 L 475.00,417.00 Z M 495.00,411.00 L 498.00,410.00 L 499.00,414.00 L 496.00,415.00 Z M 489.00,410.00 L 492.00,409.00 L 493.00,412.00 L 490.00,413.00 Z M 482.00,406.00 L 483.00,409.00 L 478.00,412.00 L 477.00,409.00 Z M 484.00,405.00 L 493.00,403.00 L 494.00,407.00 L 489.00,409.00 L 485.00,408.00 Z M 466.00,400.00 L 470.00,403.00 L 468.00,409.00 L 465.00,408.00 Z M 455.00,397.00 L 457.00,395.00 L 462.00,395.00 L 464.00,402.00 L 457.00,403.00 Z M 467.00,352.00 L 471.00,351.00 L 472.00,354.00 L 468.00,356.00 Z M 747.00,320.00 L 751.00,335.00 L 751.00,332.00 L 758.00,329.00 L 758.00,325.00 L 760.00,324.00 L 748.00,322.00 Z M 456.00,324.00 L 448.00,320.00 L 443.00,329.00 Z M 481.00,373.00 L 481.00,377.00 L 488.00,382.00 L 503.00,383.00 L 520.00,375.00 L 537.00,359.00 L 564.00,352.00 L 571.00,352.00 L 690.00,450.00 L 705.00,441.00 L 718.00,430.00 L 723.00,431.00 L 760.00,420.00 L 731.00,314.00 L 691.00,325.00 L 694.00,338.00 L 678.00,341.00 L 660.00,337.00 L 594.00,312.00 L 577.00,309.00 L 559.00,311.00 L 535.00,319.00 L 514.00,329.00 Z M 790.00,299.00 L 784.00,298.00 L 782.00,301.00 L 776.00,302.00 L 775.00,305.00 L 781.00,307.00 L 781.00,301.00 L 788.00,302.00 Z M 767.00,288.00 L 745.00,310.00 L 748.00,307.00 L 752.00,310.00 L 757.00,307.00 L 766.00,307.00 L 766.00,304.00 L 765.00,306.00 L 752.00,307.00 L 751.00,304.00 Z M 820.00,276.00 L 817.00,275.00 L 817.00,272.00 L 815.00,274.00 L 808.00,274.00 L 810.00,274.00 L 811.00,277.00 L 808.00,278.00 L 806.00,283.00 L 800.00,283.00 L 804.00,277.00 L 800.00,278.00 L 798.00,282.00 L 787.00,282.00 L 786.00,286.00 L 779.00,286.00 L 776.00,290.00 L 785.00,289.00 L 793.00,293.00 L 795.00,292.00 L 792.00,291.00 L 793.00,288.00 L 798.00,288.00 L 799.00,291.00 L 800.00,286.00 L 808.00,284.00 L 809.00,282.00 L 813.00,282.00 L 814.00,285.00 L 817.00,284.00 L 817.00,280.00 L 816.00,282.00 L 809.00,282.00 L 808.00,279.00 L 813.00,276.00 Z M 796.00,283.00 L 799.00,282.00 L 800.00,285.00 L 797.00,286.00 Z M 812.00,260.00 L 809.00,260.00 L 799.00,267.00 L 805.00,270.00 L 804.00,265.00 Z M 898.00,254.00 L 887.00,256.00 L 904.00,270.00 L 898.00,281.00 L 893.00,283.00 L 892.00,274.00 L 884.00,270.00 L 882.00,274.00 L 890.00,284.00 L 882.00,288.00 L 871.00,284.00 L 872.00,290.00 L 876.00,293.00 L 873.00,297.00 L 873.00,301.00 L 866.00,301.00 L 865.00,296.00 L 857.00,298.00 L 856.00,295.00 L 859.00,294.00 L 859.00,292.00 L 858.00,294.00 L 854.00,293.00 L 856.00,295.00 L 854.00,298.00 L 857.00,299.00 L 857.00,303.00 L 851.00,306.00 L 853.00,306.00 L 854.00,309.00 L 845.00,316.00 L 847.00,316.00 L 848.00,319.00 L 842.00,321.00 L 838.00,316.00 L 836.00,320.00 L 841.00,320.00 L 842.00,324.00 L 837.00,330.00 L 833.00,330.00 L 836.00,331.00 L 835.00,334.00 L 829.00,333.00 L 833.00,335.00 L 833.00,338.00 L 836.00,336.00 L 840.00,337.00 L 838.00,341.00 L 839.00,344.00 L 850.00,345.00 L 853.00,349.00 L 852.00,352.00 L 877.00,313.00 L 875.00,313.00 L 874.00,316.00 L 867.00,312.00 L 863.00,313.00 L 865.00,319.00 L 869.00,320.00 L 869.00,326.00 L 866.00,330.00 L 861.00,330.00 L 859.00,328.00 L 853.00,328.00 L 856.00,324.00 L 853.00,320.00 L 856.00,319.00 L 852.00,317.00 L 849.00,312.00 L 853.00,311.00 L 854.00,313.00 L 859.00,313.00 L 860.00,308.00 L 868.00,308.00 L 865.00,307.00 L 866.00,301.00 L 878.00,302.00 L 881.00,305.00 L 878.00,311.00 L 911.00,262.00 L 906.00,264.00 L 898.00,257.00 Z M 851.00,336.00 L 858.00,336.00 L 860.00,340.00 L 855.00,343.00 Z M 838.00,327.00 L 844.00,325.00 L 846.00,329.00 L 852.00,330.00 L 853.00,333.00 L 851.00,336.00 L 839.00,336.00 L 838.00,331.00 L 841.00,330.00 L 839.00,330.00 Z M 884.00,286.00 L 891.00,288.00 L 887.00,297.00 L 882.00,296.00 Z M 812.00,254.00 L 815.00,256.00 L 814.00,259.00 L 820.00,261.00 L 820.00,259.00 L 823.00,258.00 L 823.00,252.00 Z M 812.00,240.00 L 816.00,238.00 L 818.00,241.00 L 822.00,241.00 L 826.00,244.00 L 824.00,248.00 L 829.00,245.00 L 835.00,248.00 L 838.00,242.00 L 832.00,238.00 L 829.00,240.00 L 817.00,237.00 L 824.00,228.00 Z M 946.00,217.00 L 939.00,221.00 L 940.00,224.00 L 931.00,232.00 L 931.00,235.00 L 921.00,248.00 L 916.00,249.00 L 913.00,244.00 L 902.00,245.00 L 902.00,248.00 L 911.00,248.00 L 911.00,252.00 L 915.00,254.00 L 912.00,260.00 Z M 990.00,140.00 L 992.00,144.00 L 988.00,145.00 L 993.00,148.00 L 994.00,140.00 Z M 943.00,148.00 L 937.00,145.00 L 939.00,142.00 L 933.00,144.00 L 931.00,138.00 L 928.00,138.00 L 926.00,145.00 L 922.00,148.00 L 911.00,150.00 L 910.00,146.00 L 914.00,145.00 L 907.00,145.00 L 908.00,155.00 L 904.00,158.00 L 891.00,161.00 L 889.00,156.00 L 900.00,144.00 L 880.00,166.00 L 888.00,160.00 L 890.00,162.00 L 890.00,169.00 L 884.00,169.00 L 884.00,176.00 L 887.00,175.00 L 887.00,171.00 L 898.00,171.00 L 901.00,175.00 L 905.00,173.00 L 904.00,170.00 L 901.00,169.00 L 902.00,161.00 L 907.00,162.00 L 907.00,167.00 L 910.00,163.00 L 910.00,159.00 L 916.00,161.00 L 917.00,159.00 L 922.00,160.00 L 923.00,164.00 L 920.00,166.00 L 937.00,164.00 L 937.00,162.00 L 936.00,164.00 L 932.00,164.00 L 928.00,161.00 L 928.00,158.00 L 932.00,157.00 L 934.00,159.00 L 934.00,153.00 Z M 933.00,147.00 L 939.00,146.00 L 940.00,149.00 L 934.00,150.00 Z M 1060.00,166.00 L 1059.00,169.00 L 1056.00,169.00 L 1054.00,175.00 L 1047.00,175.00 L 1037.00,165.00 L 1044.00,154.00 L 1042.00,156.00 L 1030.00,158.00 L 1026.00,154.00 L 1030.00,149.00 L 1028.00,147.00 L 1020.00,148.00 L 1018.00,141.00 L 1011.00,137.00 L 1011.00,146.00 L 1008.00,149.00 L 1001.00,146.00 L 998.00,148.00 L 1003.00,155.00 L 997.00,161.00 L 989.00,161.00 L 987.00,157.00 L 980.00,154.00 L 982.00,155.00 L 981.00,158.00 L 987.00,158.00 L 985.00,161.00 L 989.00,164.00 L 990.00,168.00 L 987.00,169.00 L 982.00,177.00 L 972.00,182.00 L 971.00,189.00 L 965.00,193.00 L 962.00,198.00 L 1013.00,144.00 L 1016.00,144.00 L 1057.00,185.00 Z M 1021.00,129.00 L 1026.00,128.00 L 1027.00,131.00 L 1025.00,132.00 L 1036.00,134.00 L 1037.00,137.00 L 1040.00,138.00 L 1040.00,141.00 L 1044.00,142.00 L 1044.00,138.00 L 1046.00,137.00 L 1040.00,136.00 L 1039.00,132.00 L 1028.00,132.00 L 1027.00,129.00 L 1030.00,128.00 Z M 1003.00,123.00 L 1000.00,125.00 L 1006.00,129.00 L 1005.00,132.00 L 997.00,128.00 L 1005.00,136.00 L 1006.00,133.00 L 1009.00,132.00 L 1007.00,131.00 L 1009.00,127.00 L 1005.00,128.00 Z M 1058.00,118.00 L 1055.00,120.00 L 1058.00,122.00 L 1058.00,125.00 Z M 1021.00,118.00 L 1015.00,114.00 L 1008.00,120.00 L 1005.00,120.00 L 1004.00,117.00 L 1006.00,116.00 L 1004.00,116.00 L 1004.00,120.00 L 1015.00,117.00 L 1015.00,123.00 Z M 943.00,107.00 L 938.00,110.00 L 937.00,115.00 L 943.00,111.00 Z M 1070.00,95.00 L 1067.00,96.00 L 1069.00,107.00 Z M 1074.00,66.00 L 1072.00,83.00 L 1069.00,85.00 L 1071.00,93.00 Z M 916.00,63.00 L 947.00,86.00 L 945.00,91.00 L 935.00,102.00 L 942.00,95.00 L 946.00,96.00 L 948.00,99.00 L 947.00,102.00 L 949.00,103.00 L 952.00,99.00 L 956.00,101.00 L 958.00,97.00 L 961.00,97.00 L 961.00,94.00 L 958.00,92.00 L 957.00,94.00 L 949.00,92.00 L 946.00,82.00 L 941.00,82.00 L 927.00,71.00 L 928.00,65.00 L 926.00,63.00 L 921.00,65.00 Z M 917.00,51.00 L 903.00,54.00 L 914.00,62.00 L 912.00,58.00 Z M 391.00,43.00 L 380.00,39.00 L 365.00,40.00 L 353.00,46.00 L 343.00,57.00 L 84.00,541.00 L 183.00,541.00 L 273.00,379.00 L 296.00,380.00 L 324.00,385.00 L 352.00,394.00 L 385.00,409.00 L 434.00,313.00 L 384.00,293.00 L 323.00,281.00 L 325.00,274.00 L 374.00,183.00 L 379.00,187.00 L 445.00,306.00 L 479.00,322.00 L 501.00,323.00 L 542.00,305.00 L 407.00,59.00 L 401.00,51.00 Z M 1071.00,15.00 L 1080.00,23.00 L 1080.00,28.00 L 1081.00,17.00 L 1078.00,17.00 L 1077.00,14.00 Z" fill="#18212A"/>
    <path d="M 1074.00,747.00 L 1077.00,753.00 L 1255.00,753.00 L 1258.00,751.00 L 1257.00,745.00 L 1076.00,745.00 Z M 12.00,746.00 L 12.00,751.00 L 15.00,753.00 L 192.00,753.00 L 195.00,751.00 L 194.00,745.00 Z M 1161.00,577.00 L 1160.00,681.00 L 1188.00,682.00 L 1188.00,626.00 L 1191.00,625.00 L 1232.00,682.00 L 1258.00,682.00 L 1258.00,577.00 L 1231.00,577.00 L 1230.00,635.00 L 1227.00,634.00 L 1187.00,577.00 Z M 980.00,577.00 L 980.00,682.00 L 1008.00,682.00 L 1009.00,578.00 Z M 713.00,577.00 L 713.00,682.00 L 741.00,682.00 L 741.00,577.00 Z M 583.00,577.00 L 622.00,682.00 L 655.00,682.00 L 695.00,577.00 L 665.00,577.00 L 640.00,650.00 L 637.00,649.00 L 613.00,577.00 Z M 1057.00,580.00 L 1039.00,594.00 L 1030.00,611.00 L 1028.00,620.00 L 1028.00,639.00 L 1035.00,659.00 L 1046.00,672.00 L 1060.00,680.00 L 1070.00,683.00 L 1094.00,684.00 L 1116.00,677.00 L 1130.00,665.00 L 1140.00,645.00 L 1141.00,618.00 L 1135.00,601.00 L 1122.00,586.00 L 1104.00,577.00 L 1095.00,575.00 L 1075.00,575.00 Z M 1079.00,598.00 L 1091.00,598.00 L 1099.00,601.00 L 1106.00,607.00 L 1112.00,620.00 L 1112.00,639.00 L 1108.00,649.00 L 1102.00,656.00 L 1091.00,661.00 L 1078.00,661.00 L 1069.00,657.00 L 1060.00,647.00 L 1057.00,637.00 L 1057.00,622.00 L 1062.00,609.00 L 1069.00,602.00 Z M 889.00,580.00 L 879.00,588.00 L 873.00,600.00 L 873.00,615.00 L 876.00,622.00 L 882.00,629.00 L 893.00,635.00 L 930.00,645.00 L 934.00,653.00 L 929.00,660.00 L 914.00,663.00 L 903.00,659.00 L 898.00,649.00 L 871.00,650.00 L 871.00,657.00 L 875.00,667.00 L 887.00,678.00 L 907.00,684.00 L 933.00,683.00 L 948.00,677.00 L 956.00,670.00 L 962.00,657.00 L 962.00,644.00 L 957.00,633.00 L 949.00,626.00 L 940.00,622.00 L 913.00,616.00 L 904.00,612.00 L 901.00,608.00 L 901.00,604.00 L 908.00,597.00 L 919.00,596.00 L 926.00,598.00 L 931.00,603.00 L 932.00,608.00 L 959.00,608.00 L 959.00,601.00 L 955.00,591.00 L 944.00,581.00 L 926.00,575.00 L 906.00,575.00 Z M 786.00,578.00 L 775.00,584.00 L 766.00,596.00 L 764.00,612.00 L 767.00,621.00 L 774.00,629.00 L 785.00,635.00 L 822.00,645.00 L 826.00,654.00 L 820.00,661.00 L 806.00,663.00 L 795.00,659.00 L 790.00,649.00 L 762.00,650.00 L 767.00,667.00 L 779.00,678.00 L 800.00,684.00 L 824.00,683.00 L 840.00,677.00 L 849.00,669.00 L 854.00,658.00 L 854.00,644.00 L 852.00,638.00 L 846.00,630.00 L 834.00,623.00 L 797.00,613.00 L 793.00,609.00 L 793.00,603.00 L 800.00,597.00 L 811.00,596.00 L 819.00,599.00 L 824.00,608.00 L 851.00,608.00 L 851.00,601.00 L 847.00,591.00 L 838.00,582.00 L 823.00,576.00 L 798.00,575.00 Z M 399.00,412.00 L 401.00,416.00 L 444.00,447.00 L 454.00,435.00 L 460.00,432.00 L 472.00,431.00 L 478.00,433.00 L 487.00,442.00 L 489.00,452.00 L 503.00,450.00 L 510.00,453.00 L 518.00,461.00 L 521.00,473.00 L 532.00,472.00 L 538.00,474.00 L 546.00,481.00 L 550.00,495.00 L 562.00,494.00 L 567.00,496.00 L 577.00,509.00 L 598.00,524.00 L 609.00,523.00 L 615.00,518.00 L 617.00,514.00 L 616.00,503.00 L 575.00,468.00 L 576.00,463.00 L 583.00,466.00 L 632.00,504.00 L 641.00,504.00 L 645.00,502.00 L 652.00,493.00 L 650.00,481.00 L 599.00,438.00 L 600.00,434.00 L 606.00,435.00 L 660.00,478.00 L 673.00,479.00 L 681.00,473.00 L 684.00,467.00 L 683.00,458.00 L 676.00,450.00 L 568.00,362.00 L 544.00,367.00 L 522.00,385.00 L 506.00,392.00 L 495.00,393.00 L 481.00,389.00 L 474.00,383.00 L 472.00,372.00 L 475.00,365.00 L 498.00,333.00 L 473.00,331.00 L 448.00,319.00 Z M 1083.00,12.00 L 902.00,53.00 L 945.00,85.00 L 946.00,88.00 L 863.00,185.00 L 744.00,310.00 L 775.00,427.00 L 720.00,442.00 L 712.00,449.00 L 693.00,460.00 L 694.00,465.00 L 692.00,473.00 L 682.00,485.00 L 673.00,489.00 L 662.00,489.00 L 661.00,497.00 L 653.00,508.00 L 640.00,514.00 L 627.00,512.00 L 623.00,523.00 L 617.00,529.00 L 607.00,533.00 L 625.00,538.00 L 647.00,541.00 L 687.00,540.00 L 718.00,531.00 L 744.00,515.00 L 758.00,501.00 L 776.00,476.00 L 857.00,345.00 L 912.00,261.00 L 955.00,207.00 L 1013.00,145.00 L 1016.00,145.00 L 1058.00,187.00 Z" fill="#0E7C7B"/>
  </g>
</svg>